<svg width="30" height="30" viewBox="0 0 30 30" fill="none" xmlns="http://www.w3.org/2000/svg">
<path fill-rule="evenodd" clip-rule="evenodd" d="M5 13.5608C5 11.6623 6.53902 10.1233 8.4375 10.1233H21.5625C23.1158 10.1233 24.375 11.3825 24.375 12.9358V14.0745C25.1133 14.4185 25.625 15.1671 25.625 16.0353V18.5863C25.625 19.4545 25.1133 20.2031 24.375 20.5471V21.6858C24.375 23.2391 23.1158 24.4983 21.5625 24.4983H8.4375C6.53902 24.4983 5 22.9593 5 21.0608V13.5608ZM8.4375 11.9983C7.57456 11.9983 6.875 12.6978 6.875 13.5608V21.0608C6.875 21.9237 7.57456 22.6233 8.4375 22.6233H21.5625C22.0803 22.6233 22.5 22.2036 22.5 21.6858V19.8363C22.5 19.3044 22.9312 18.8733 23.463 18.8733C23.6215 18.8733 23.75 18.7448 23.75 18.5863V16.0353C23.75 15.8768 23.6215 15.7483 23.463 15.7483C22.9312 15.7483 22.5 15.3171 22.5 14.7853V12.9358C22.5 12.418 22.0803 11.9983 21.5625 11.9983H8.4375Z" fill="white"/>
<path fill-rule="evenodd" clip-rule="evenodd" d="M17.5 16.0608C17.5 14.8527 18.4794 13.8733 19.6875 13.8733H23.4375C24.6456 13.8733 25.625 14.8527 25.625 16.0608V18.5608C25.625 19.7689 24.6456 20.7483 23.4375 20.7483H19.6875C18.4794 20.7483 17.5 19.7689 17.5 18.5608V16.0608ZM19.6875 15.7483C19.5149 15.7483 19.375 15.8882 19.375 16.0608V18.5608C19.375 18.7334 19.5149 18.8733 19.6875 18.8733H23.4375C23.6101 18.8733 23.75 18.7334 23.75 18.5608V16.0608C23.75 15.8882 23.6101 15.7483 23.4375 15.7483H19.6875Z" fill="white"/>
<path fill-rule="evenodd" clip-rule="evenodd" d="M12.1875 13.8733C12.7053 13.8733 13.125 14.293 13.125 14.8108V19.8108C13.125 20.3286 12.7053 20.7483 12.1875 20.7483C11.6697 20.7483 11.25 20.3286 11.25 19.8108L11.25 14.8108C11.25 14.293 11.6697 13.8733 12.1875 13.8733Z" fill="white"/>
<path fill-rule="evenodd" clip-rule="evenodd" d="M14.3582 5.38918C15.3639 4.69296 16.745 4.95661 17.4235 5.97432L21.4395 11.9984H8.21293C7.17129 11.9984 6.75171 10.6552 7.60815 10.0623L14.3582 5.38918ZM15.8634 7.01438C15.7664 6.86899 15.5691 6.83133 15.4255 6.93079L10.814 10.1234H17.936L15.8634 7.01438Z" fill="white"/>
</svg>
